<?xml version="1.0" encoding="iso-8859-1"?>
<!-- Uploaded to: SVG Repo, www.svgrepo.com, Generator: SVG Repo Mixer Tools -->
<svg height="800px" width="800px" version="1.1" id="Layer_1" xmlns="http://www.w3.org/2000/svg" xmlns:xlink="http://www.w3.org/1999/xlink" 
	 viewBox="0 0 512.004 512.004" xml:space="preserve">
<g>
	<path style="fill:#EDEBDA;" d="M256,393.146L256,393.146c-72.037-28.809-149.294-39.643-219.429-9.143h-9.143V45.718h9.143
		c68.27-24.384,151.159-24.384,219.429,0V393.146z"/>
	<g>
		<path style="fill:#CEC9AE;" d="M256,393.146L256,393.146c75.995-29.029,154.459-39.543,219.429-9.143h8.997V45.718h-8.997
			c-71.141-24.384-148.672-24.384-219.429,0V393.146z"/>
		<path style="fill:#CEC9AE;" d="M201.143,118.861h-82.286c-5.047,0-9.143-4.087-9.143-9.143c0-5.056,4.096-9.143,9.143-9.143
			h82.286c5.047,0,9.143,4.087,9.143,9.143C210.286,114.774,206.19,118.861,201.143,118.861"/>
		<path style="fill:#CEC9AE;" d="M82.286,118.861c-2.469,0-4.754-0.923-6.491-2.651c-1.737-1.737-2.651-4.023-2.651-6.491
			c0-1.189,0.274-2.377,0.731-3.474c0.457-1.189,1.097-2.103,1.92-3.017c3.474-3.383,9.509-3.383,12.983,0
			c0.823,0.914,1.463,1.829,1.92,3.017c0.457,1.097,0.731,2.286,0.731,3.474c0,2.469-0.914,4.754-2.651,6.491
			C87.04,117.937,84.754,118.861,82.286,118.861"/>
		<path style="fill:#CEC9AE;" d="M201.143,164.575H82.286c-5.047,0-9.143-4.087-9.143-9.143s4.096-9.143,9.143-9.143h118.857
			c5.047,0,9.143,4.087,9.143,9.143S206.19,164.575,201.143,164.575"/>
		<path style="fill:#CEC9AE;" d="M164.571,210.289H82.286c-5.047,0-9.143-4.087-9.143-9.143c0-5.056,4.096-9.143,9.143-9.143h82.286
			c5.047,0,9.143,4.087,9.143,9.143C173.714,206.202,169.618,210.289,164.571,210.289"/>
		<path style="fill:#CEC9AE;" d="M201.143,210.289c-2.469,0-4.754-0.923-6.491-2.651c-0.823-0.923-1.463-1.92-1.92-3.017
			c-0.457-1.097-0.731-2.286-0.731-3.474c0-2.377,1.006-4.763,2.651-6.491c3.474-3.383,9.509-3.383,12.983,0
			c1.646,1.728,2.651,4.114,2.651,6.491c0,1.189-0.274,2.377-0.731,3.474c-0.457,1.097-1.097,2.094-1.92,3.017
			C205.897,209.366,203.611,210.289,201.143,210.289"/>
		<path style="fill:#CEC9AE;" d="M201.143,256.003h-82.286c-5.047,0-9.143-4.087-9.143-9.143c0-5.056,4.096-9.143,9.143-9.143
			h82.286c5.047,0,9.143,4.087,9.143,9.143C210.286,251.917,206.19,256.003,201.143,256.003"/>
		<path style="fill:#CEC9AE;" d="M82.286,256.003c-2.469,0-4.754-0.923-6.491-2.651c-1.737-1.737-2.651-4.023-2.651-6.491
			c0-1.189,0.274-2.377,0.731-3.474c0.457-1.097,1.097-2.103,1.92-3.017c0.914-0.823,1.829-1.463,3.017-1.92
			c3.383-1.463,7.406-0.549,9.966,1.92c0.823,0.914,1.463,1.829,1.92,3.017c0.457,1.097,0.731,2.286,0.731,3.474
			c0,2.469-0.914,4.754-2.651,6.491C87.04,255.08,84.754,256.003,82.286,256.003"/>
		<path style="fill:#CEC9AE;" d="M201.143,301.718H82.286c-5.047,0-9.143-4.087-9.143-9.143c0-5.056,4.096-9.143,9.143-9.143
			h118.857c5.047,0,9.143,4.087,9.143,9.143C210.286,297.631,206.19,301.718,201.143,301.718"/>
	</g>
	<g>
		<path style="fill:#EDEBDA;" d="M393.143,164.575h-82.286c-5.047,0-9.143-4.087-9.143-9.143s4.096-9.143,9.143-9.143h82.286
			c5.047,0,9.143,4.087,9.143,9.143S398.19,164.575,393.143,164.575"/>
		<path style="fill:#EDEBDA;" d="M438.857,164.575c-2.469,0-4.754-0.923-6.491-2.651c-0.823-0.923-1.463-1.92-1.92-3.017
			c-0.549-1.097-0.731-2.286-0.731-3.474c0-2.377,1.006-4.763,2.651-6.491c0.914-0.823,1.829-1.463,3.017-1.92
			c3.383-1.463,7.406-0.64,9.966,1.92c1.646,1.728,2.651,4.114,2.651,6.491c0,2.469-0.914,4.754-2.651,6.491
			C443.611,163.651,441.326,164.575,438.857,164.575"/>
		<path style="fill:#EDEBDA;" d="M438.857,118.861h-128c-5.047,0-9.143-4.087-9.143-9.143c0-5.056,4.096-9.143,9.143-9.143h128
			c5.047,0,9.143,4.087,9.143,9.143C448,114.774,443.904,118.861,438.857,118.861"/>
		<path style="fill:#EDEBDA;" d="M438.857,301.718h-91.429c-5.047,0-9.143-4.087-9.143-9.143c0-5.056,4.096-9.143,9.143-9.143
			h91.429c5.047,0,9.143,4.087,9.143,9.143C448,297.631,443.904,301.718,438.857,301.718"/>
		<path style="fill:#EDEBDA;" d="M310.857,301.718c-2.469,0-4.754-0.923-6.491-2.651c-1.737-1.737-2.651-4.023-2.651-6.491
			c0-1.189,0.274-2.377,0.731-3.474c0.457-1.189,1.097-2.103,1.92-3.017c0.914-0.823,1.92-1.463,3.017-1.92
			c2.194-1.006,4.754-1.006,6.949,0c1.097,0.457,2.103,1.097,3.017,1.92c0.823,0.914,1.463,1.829,1.92,3.017
			c0.549,1.097,0.731,2.286,0.731,3.474c0,2.377-0.914,4.754-2.651,6.491C315.611,300.794,313.326,301.718,310.857,301.718"/>
		<path style="fill:#EDEBDA;" d="M393.143,256.003h-82.286c-5.047,0-9.143-4.087-9.143-9.143c0-5.056,4.096-9.143,9.143-9.143
			h82.286c5.047,0,9.143,4.087,9.143,9.143C402.286,251.917,398.19,256.003,393.143,256.003"/>
		<path style="fill:#EDEBDA;" d="M438.857,256.003c-2.469,0-4.754-0.923-6.491-2.651c-1.737-1.737-2.651-4.023-2.651-6.491
			c0-1.189,0.274-2.377,0.731-3.474c0.457-1.097,1.097-2.103,1.92-3.017c3.474-3.383,9.6-3.383,12.983,0
			c0.823,0.914,1.463,1.829,1.92,3.017c0.457,1.097,0.731,2.286,0.731,3.474c0,2.469-0.914,4.754-2.651,6.491
			c-0.914,0.823-1.92,1.463-3.017,1.92C441.234,255.729,440.046,256.003,438.857,256.003"/>
		<path style="fill:#EDEBDA;" d="M438.857,210.289h-128c-5.047,0-9.143-4.087-9.143-9.143c0-5.056,4.096-9.143,9.143-9.143h128
			c5.047,0,9.143,4.087,9.143,9.143C448,206.202,443.904,210.289,438.857,210.289"/>
	</g>
	<g>
		<path style="fill:#A2D672;" d="M329.143,371.742c-24.283,4.763-48.841,12.123-73.143,21.403
			c-72.037-28.809-149.294-39.643-219.429-9.143h-9.143V45.717H0v356.571h329.143V371.742z"/>
		<path style="fill:#A2D672;" d="M484.429,45.718v338.286h-8.997c-22.93-10.734-47.561-16.274-73.143-17.792v36.078h109.714V45.718
			H484.429z"/>
	</g>
	<g>
		<path style="fill:#88C057;" d="M0,429.718h329.143v-27.429H0V429.718z"/>
		<path style="fill:#88C057;" d="M402.286,429.718H512v-27.429H402.286V429.718z"/>
	</g>
	<path style="fill:#DD342E;" d="M329.143,371.742v112.832l36.571-27.429l36.571,27.429V366.211
		C378.551,364.793,354.002,366.869,329.143,371.742"/>
</g>
</svg>